<?xml version="1.0" standalone="no"?>
<!DOCTYPE svg PUBLIC "-//W3C//DTD SVG 20010904//EN"
 "http://www.w3.org/TR/2001/REC-SVG-20010904/DTD/svg10.dtd">
<svg version="1.0" xmlns="http://www.w3.org/2000/svg"
 width="256.000000pt" height="256.000000pt" viewBox="0 0 256.000000 256.000000"
 preserveAspectRatio="xMidYMid meet">
<metadata>
Created by potrace 1.11, written by Peter Selinger 2001-2013
</metadata>
<g transform="translate(0.000000,256.000000) scale(0.100000,-0.100000)"
fill="#000000" stroke="none">
<path d="M678 2223 c-8 -10 -31 -65 -51 -123 -19 -58 -89 -262 -155 -455 -391
-1138 -414 -1206 -417 -1225 -7 -43 54 -75 84 -45 9 8 59 143 112 298 l97 282
364 3 364 2 89 -262 c108 -321 110 -325 135 -333 26 -8 70 19 70 43 0 10 -27
97 -59 193 -96 282 -221 648 -356 1044 -69 204 -140 411 -156 460 -17 50 -37
100 -45 113 -17 26 -55 29 -76 5z m105 -403 c3 -8 20 -55 36 -105 16 -49 73
-215 125 -367 52 -153 92 -278 88 -279 -31 -3 -633 -1 -637 3 -5 5 9 45 200
603 59 171 110 319 113 330 4 14 15 -8 37 -75 18 -52 35 -102 38 -110z"/>
<path d="M1436 2225 c-9 -9 -16 -26 -17 -38 -1 -30 -1 -1752 0 -1799 2 -70 -2
-69 332 -68 268 2 305 4 366 22 131 39 234 117 307 231 118 185 105 438 -32
609 -41 52 -117 114 -175 144 l-48 25 38 28 c190 138 246 416 124 621 -47 78
-117 146 -193 184 -98 49 -140 55 -423 56 -229 0 -265 -2 -279 -15z m585 -108
c110 -32 198 -113 244 -223 32 -79 31 -204 -3 -278 -46 -102 -136 -182 -239
-212 -32 -9 -103 -16 -191 -17 -149 -3 -172 -10 -172 -52 0 -48 23 -54 203
-55 100 -1 187 -7 216 -15 135 -35 252 -142 296 -270 25 -73 28 -197 5 -266
-51 -156 -181 -270 -338 -295 -40 -7 -477 -12 -502 -6 -14 3 -16 96 -14 855 1
469 2 852 3 852 337 0 442 -4 492 -18z"/>
</g>
</svg>
